<svg xmlns="http://www.w3.org/2000/svg" viewBox="0 0 515.65 567.17"><defs><style>.cls-1{fill:#1d1d1b;fill-rule:evenodd;}</style></defs><title>Asset 1</title><g id="Layer_2" data-name="Layer 2"><g id="Lager_1" data-name="Lager 1"><path class="cls-1" d="M515.65,27.87c-5.87,4.64-13.23,4-20,5.48-13.78,2.93-27.68,5.32-41.53,7.92q-22.38,4.21-44.76,8.4Q386.53,54,363.66,58.34c-12.28,2.31-24.58,4.55-36.86,6.86Q306.52,69,286.26,72.89c-3.05.58-6.08,1.39-9.15,1.69-2.12.2-2.81,1.28-3.28,3q-4.06,15.31-8.22,30.61-8.46,31.32-16.94,62.65c-3.51,13-7,26.06-10.56,39.43,3.73-.58,7.25-1.1,10.76-1.68a483,483,0,0,1,57.75-6.44c14.5-.65,29-1.34,43.52-1.28,18.05.09,36.06,1.39,53.71,5.57,11.21,2.66,22.22,6,31.7,12.88,6.52,4.71,12.6,10.08,15.09,18a43.28,43.28,0,0,1-1.29,29.34,89.31,89.31,0,0,1-27.11,36.91c-.44.36-1,.55-1.36,1,7.66,2.7,14.7,5.76,21.05,10.23,15.77,11.11,25.9,26.18,31.48,44.54A102.91,102.91,0,0,1,476.57,407c-2.55,15.12-9.69,28.12-19.65,39.64-16.19,18.75-36.35,32.11-58.3,43.09C376,501.06,352.26,509.56,328,516.55c-16.83,4.85-33.72,9.56-50.78,13.53-21.15,4.92-42.44,9.3-63.77,13.37-25.39,4.85-51,8.09-76.77,10.65-19.7,2-39.42,3.71-59.13,5.66-21,2.09-42.06,4.31-63.1,6.49-1.33.14-2.65.41-4,.56-3.7.41-7.48,1.11-10.45-2.12v-6.05c1.87-5,3.79-10,5.6-15A7.38,7.38,0,0,1,12,538.54c18.37-1.85,36.72-3.75,55.09-5.59,16.94-1.7,33.89-3.39,50.85-5a2.85,2.85,0,0,0,2.88-2.48q5.73-21.37,11.48-42.75,9.6-35.58,19.24-71.13,8.27-30.6,16.47-61.2,7.53-27.93,15.11-55.84c4.15-15.38,8.27-30.76,12.58-46.77-3.32.93-6.26,1.68-9.14,2.59-16.24,5.14-31.82,11.9-47.21,19.16-4.65,2.19-8.54,1.27-10.71-3.71-1.82-4.14-3.7-8.26-5.56-12.38-2.06-4.57-.56-8.48,4.06-10.45,19.43-8.31,39.11-15.93,59.59-21.31,5.1-1.35,10.25-2.55,15.32-4a3.81,3.81,0,0,0,2.34-2.11c4.45-16.17,8.77-32.37,13.14-48.55Q225.12,139,232.72,111q3.78-14,7.53-27.93c.1-.39.1-.81.2-1.63-3.68.65-7.18,1.23-10.66,1.87l-32.65,6.11q-16.2,3-32.4,6.06T132.6,101.6c-13.5,2.59-27,5.26-40.52,7.77-7.16,1.34-14.35,2.54-21.56,3.54-2.75.38-4.77-1.93-4.77-4.78,0-6.8,0-13.6,0-20.41a5.5,5.5,0,0,1,4.59-5.4q31.55-5.88,63.09-11.76,34.5-6.47,69-13t68.74-13Q304.52,38.33,337.9,32c20.85-3.93,41.71-7.78,62.56-11.71,16.66-3.13,33.29-6.36,49.94-9.49q26.84-5,53.68-10c.9-.17,1.79-.5,2.7-.61,3.28-.38,6.51-.51,8.87,2.47ZM153.44,524c1.44-.1,2.51-.1,3.56-.25,15-2.19,30.12-4,45.05-6.71,17.9-3.23,35.71-7,53.48-10.92a696.08,696.08,0,0,0,86-24.56c21.63-7.8,42.73-16.81,62.26-29.12,12.48-7.87,24.26-16.58,33-28.73,8.12-11.24,13.44-23.61,12.8-37.63a85.1,85.1,0,0,0-4.06-20.88c-4.44-14.4-13.51-24.9-28-30.24-10-3.68-20.36-5-30.88-5.06a109.2,109.2,0,0,0-18.8,1.11c-18.78,3.14-37.44,6.93-56.2,10.12-12.66,2.15-25.4,3.76-38.12,5.47-11.65,1.57-23.31,3-35,4.4q-18.87,2.29-37.76,4.47a2.75,2.75,0,0,0-2.69,2.4c-1.92,7.47-3.92,14.92-5.93,22.37q-8.79,32.52-17.62,65t-17.56,65.08C155.87,514.77,154.71,519.19,153.44,524ZM207.1,325.1c2-.22,3.59-.37,5.15-.57,7.24-.92,14.48-1.88,21.73-2.8l49.19-6.22c13.81-1.75,27.64-3.42,41.44-5.29,11.2-1.52,22.5-2.31,33.45-5.55,15.61-4.63,30.56-10.54,43.76-20.3,9.59-7.08,17-15.93,21.12-27.23,2.4-6.62.6-12.51-5.21-16.55a53.49,53.49,0,0,0-10.81-5.78c-16.23-6.38-33.36-8-50.56-8.73-16.79-.74-33.54.51-50.27,1.9a638.12,638.12,0,0,0-70.68,10.18c-5.21,1-5.14,1.05-6.51,6.14q-7.08,26.35-14.24,52.67C212.17,306.18,209.71,315.39,207.1,325.1Z"/></g></g></svg>